HIERARCHY
ROOT Bip01
{
  OFFSET 15.7446 31.5610 57.6474
  CHANNELS 6 Xposition Yposition Zposition Zrotation Xrotation Yrotation
  JOINT Bip01_Footsteps
  {
    OFFSET 53.2821 -0.0001 8.1953
    CHANNELS 6 Xposition Yposition Zposition Zrotation Xrotation Yrotation
    End Site
    {
      OFFSET 0 0 0
    }
  }
  JOINT b_Hips
  {
    OFFSET 0.0000 0.0000 0.0000
    CHANNELS 6 Xposition Yposition Zposition Zrotation Xrotation Yrotation
    JOINT b_Spine
    {
      OFFSET 10.4409 -1.6220 0.0000
      CHANNELS 6 Xposition Yposition Zposition Zrotation Xrotation Yrotation
      JOINT b_Spine1
      {
        OFFSET 8.8514 -0.0090 -0.0000
        CHANNELS 6 Xposition Yposition Zposition Zrotation Xrotation Yrotation
        JOINT b_Spine2
        {
          OFFSET 11.3035 -0.0088 0.0000
          CHANNELS 6 Xposition Yposition Zposition Zrotation Xrotation Yrotation
          JOINT b_Spine3
          {
            OFFSET 11.0297 -0.0113 0.0000
            CHANNELS 6 Xposition Yposition Zposition Zrotation Xrotation Yrotation
            JOINT b__Neck
            {
              OFFSET 14.9480 -3.1935 0.0000
              CHANNELS 6 Xposition Yposition Zposition Zrotation Xrotation Yrotation
              JOINT b__Neck1
              {
                OFFSET 5.4958 -0.0043 0.0000
                CHANNELS 6 Xposition Yposition Zposition Zrotation Xrotation Yrotation
                JOINT b__Neck2
                {
                  OFFSET 5.5266 -0.0049 -0.0000
                  CHANNELS 6 Xposition Yposition Zposition Zrotation Xrotation Yrotation
                  JOINT b_Head
                  {
                    OFFSET 6.1093 0.0000 -0.0000
                    CHANNELS 6 Xposition Yposition Zposition Zrotation Xrotation Yrotation
                    JOINT Bip01_HeadNub
                    {
                      OFFSET 28.6688 0.0000 0.0000
                      CHANNELS 6 Xposition Yposition Zposition Zrotation Xrotation Yrotation
                      End Site
                      {
                        OFFSET 0 0 0
                      }
                    }
                    JOINT Dog_Jaw
                    {
                      OFFSET 0.6075 2.3575 -0.0000
                      CHANNELS 6 Xposition Yposition Zposition Zrotation Xrotation Yrotation
                      End Site
                      {
                        OFFSET 0 0 0
                      }
                    }
                  }
                }
              }
            }
            JOINT b_LeftClav
            {
              OFFSET 10.4683 2.1257 3.5190
              CHANNELS 6 Xposition Yposition Zposition Zrotation Xrotation Yrotation
              JOINT b_LeftArm
              {
                OFFSET 7.3453 0.0000 0.0000
                CHANNELS 6 Xposition Yposition Zposition Zrotation Xrotation Yrotation
                JOINT b_LeftForeArm
                {
                  OFFSET 23.3863 -0.0000 0.0000
                  CHANNELS 6 Xposition Yposition Zposition Zrotation Xrotation Yrotation
                  JOINT b_LeftHand
                  {
                    OFFSET 21.5040 0.0000 -0.0000
                    CHANNELS 6 Xposition Yposition Zposition Zrotation Xrotation Yrotation
                    JOINT b__LeftFinger
                    {
                      OFFSET 1.5926 6.2126 -0.0138
                      CHANNELS 6 Xposition Yposition Zposition Zrotation Xrotation Yrotation
                      JOINT Bip01_L_Finger0Nub
                      {
                        OFFSET 23.3657 0.0000 0.0000
                        CHANNELS 6 Xposition Yposition Zposition Zrotation Xrotation Yrotation
                        End Site
                        {
                          OFFSET 0 0 0
                        }
                      }
                    }
                  }
                }
                JOINT Dog_LeftArmor002
                {
                  OFFSET 4.2035 4.4457 12.7354
                  CHANNELS 6 Xposition Yposition Zposition Zrotation Xrotation Yrotation
                  End Site
                  {
                    OFFSET 0 0 0
                  }
                }
              }
            }
            JOINT b_RightClav
            {
              OFFSET 10.4683 2.1257 -3.5189
              CHANNELS 6 Xposition Yposition Zposition Zrotation Xrotation Yrotation
              JOINT b_RightArm
              {
                OFFSET 7.3453 0.0000 -0.0000
                CHANNELS 6 Xposition Yposition Zposition Zrotation Xrotation Yrotation
                JOINT b_RightForeArm
                {
                  OFFSET 23.3863 0.0000 0.0000
                  CHANNELS 6 Xposition Yposition Zposition Zrotation Xrotation Yrotation
                  JOINT b_RightHand
                  {
                    OFFSET 21.5040 0.0000 0.0000
                    CHANNELS 6 Xposition Yposition Zposition Zrotation Xrotation Yrotation
                    JOINT b_RightFinger
                    {
                      OFFSET 1.5926 6.2126 0.0138
                      CHANNELS 6 Xposition Yposition Zposition Zrotation Xrotation Yrotation
                      JOINT Bip01_R_Finger0Nub
                      {
                        OFFSET 23.3657 0.0000 0.0000
                        CHANNELS 6 Xposition Yposition Zposition Zrotation Xrotation Yrotation
                        End Site
                        {
                          OFFSET 0 0 0
                        }
                      }
                    }
                  }
                }
                JOINT Dog_RightArmor002
                {
                  OFFSET 4.2034 4.4457 -12.7351
                  CHANNELS 6 Xposition Yposition Zposition Zrotation Xrotation Yrotation
                  End Site
                  {
                    OFFSET 0 0 0
                  }
                }
              }
            }
          }
        }
      }
    }
    JOINT b_Tail001
    {
      OFFSET -4.7889 3.8598 0.8608
      CHANNELS 6 Xposition Yposition Zposition Zrotation Xrotation Yrotation
      JOINT b_Tail002
      {
        OFFSET 4.2212 0.0000 -0.0000
        CHANNELS 6 Xposition Yposition Zposition Zrotation Xrotation Yrotation
        JOINT b_Tail003
        {
          OFFSET 4.9750 0.0000 -0.0000
          CHANNELS 6 Xposition Yposition Zposition Zrotation Xrotation Yrotation
          JOINT b_Tail004
          {
            OFFSET 4.7171 -0.0000 0.0000
            CHANNELS 6 Xposition Yposition Zposition Zrotation Xrotation Yrotation
            JOINT b_Tail005
            {
              OFFSET 9.7173 -0.0000 -0.0001
              CHANNELS 6 Xposition Yposition Zposition Zrotation Xrotation Yrotation
              JOINT b_Tail006
              {
                OFFSET 8.2617 0.0001 0.0000
                CHANNELS 6 Xposition Yposition Zposition Zrotation Xrotation Yrotation
                JOINT b_Tail007
                {
                  OFFSET 9.7599 -0.0001 0.0000
                  CHANNELS 6 Xposition Yposition Zposition Zrotation Xrotation Yrotation
                  JOINT b_Tail008
                  {
                    OFFSET 11.1530 0.0000 -0.0000
                    CHANNELS 6 Xposition Yposition Zposition Zrotation Xrotation Yrotation
                    JOINT b_Tail009
                    {
                      OFFSET 10.3039 0.0000 0.0000
                      CHANNELS 6 Xposition Yposition Zposition Zrotation Xrotation Yrotation
                      End Site
                      {
                        OFFSET 0 0 0
                      }
                    }
                  }
                }
              }
            }
          }
        }
      }
    }
    JOINT Dog_LeftTail001
    {
      OFFSET -11.9878 -1.7857 10.1900
      CHANNELS 6 Xposition Yposition Zposition Zrotation Xrotation Yrotation
      JOINT Dog_LeftTail002
      {
        OFFSET 8.4424 0.0000 0.0000
        CHANNELS 6 Xposition Yposition Zposition Zrotation Xrotation Yrotation
        JOINT Dog_LeftTail003
        {
          OFFSET 9.9501 0.0000 -0.0000
          CHANNELS 6 Xposition Yposition Zposition Zrotation Xrotation Yrotation
          JOINT Dog_LeftTail004
          {
            OFFSET 9.4342 0.0000 -0.0000
            CHANNELS 6 Xposition Yposition Zposition Zrotation Xrotation Yrotation
            JOINT Dog_LeftTail005
            {
              OFFSET 9.7173 0.0001 0.0001
              CHANNELS 6 Xposition Yposition Zposition Zrotation Xrotation Yrotation
              JOINT Dog_LeftTail006
              {
                OFFSET 8.2618 -0.0000 -0.0000
                CHANNELS 6 Xposition Yposition Zposition Zrotation Xrotation Yrotation
                JOINT Dog_LeftTail007
                {
                  OFFSET 9.7599 0.0000 0.0000
                  CHANNELS 6 Xposition Yposition Zposition Zrotation Xrotation Yrotation
                  JOINT Dog_LeftTail008
                  {
                    OFFSET 11.1529 -0.0001 -0.0001
                    CHANNELS 6 Xposition Yposition Zposition Zrotation Xrotation Yrotation
                    JOINT Dog_LeftTail009
                    {
                      OFFSET 10.3039 -0.0000 0.0000
                      CHANNELS 6 Xposition Yposition Zposition Zrotation Xrotation Yrotation
                      End Site
                      {
                        OFFSET 0 0 0
                      }
                    }
                  }
                }
              }
            }
          }
        }
      }
    }
    JOINT b_LeftLegUpper
    {
      OFFSET -0.0000 0.0000 9.9422
      CHANNELS 6 Xposition Yposition Zposition Zrotation Xrotation Yrotation
      JOINT b_LeftLeg
      {
        OFFSET 25.9795 0.0000 -0.0000
        CHANNELS 6 Xposition Yposition Zposition Zrotation Xrotation Yrotation
        JOINT b_LeftLeg1
        {
          OFFSET 21.2087 0.0000 -0.0000
          CHANNELS 6 Xposition Yposition Zposition Zrotation Xrotation Yrotation
          JOINT b_LeftAnkle
          {
            OFFSET 10.4341 -0.0000 0.0000
            CHANNELS 6 Xposition Yposition Zposition Zrotation Xrotation Yrotation
            JOINT b_LeftToe
            {
              OFFSET 5.6676 6.5983 0.0000
              CHANNELS 6 Xposition Yposition Zposition Zrotation Xrotation Yrotation
              JOINT Bip01_L_Toe0Nub
              {
                OFFSET 8.6279 0.0000 -0.0000
                CHANNELS 6 Xposition Yposition Zposition Zrotation Xrotation Yrotation
                End Site
                {
                  OFFSET 0 0 0
                }
              }
            }
            JOINT b_LeftToe002
            {
              OFFSET 5.6741 -2.3619 -0.5306
              CHANNELS 6 Xposition Yposition Zposition Zrotation Xrotation Yrotation
              End Site
              {
                OFFSET 0 0 0
              }
            }
          }
        }
      }
      JOINT Dog_LeftArmor001
      {
        OFFSET -2.6287 -3.4254 -3.1462
        CHANNELS 6 Xposition Yposition Zposition Zrotation Xrotation Yrotation
        End Site
        {
          OFFSET 0 0 0
        }
      }
    }
    JOINT b_RightLegUpper
    {
      OFFSET 0.0000 -0.0000 -9.9422
      CHANNELS 6 Xposition Yposition Zposition Zrotation Xrotation Yrotation
      JOINT b_RightLeg
      {
        OFFSET 25.9795 0.0000 0.0000
        CHANNELS 6 Xposition Yposition Zposition Zrotation Xrotation Yrotation
        JOINT b_RightLeg1
        {
          OFFSET 21.2087 0.0000 0.0000
          CHANNELS 6 Xposition Yposition Zposition Zrotation Xrotation Yrotation
          JOINT b_RightAnkle
          {
            OFFSET 10.4341 -0.0000 -0.0000
            CHANNELS 6 Xposition Yposition Zposition Zrotation Xrotation Yrotation
            JOINT b_RightToe
            {
              OFFSET 5.6676 6.5983 -0.0000
              CHANNELS 6 Xposition Yposition Zposition Zrotation Xrotation Yrotation
              JOINT Bip01_R_Toe0Nub
              {
                OFFSET 8.6279 -0.0000 0.0000
                CHANNELS 6 Xposition Yposition Zposition Zrotation Xrotation Yrotation
                End Site
                {
                  OFFSET 0 0 0
                }
              }
            }
            JOINT b_RightToe002
            {
              OFFSET 5.6741 -2.3620 0.5304
              CHANNELS 6 Xposition Yposition Zposition Zrotation Xrotation Yrotation
              End Site
              {
                OFFSET 0 0 0
              }
            }
          }
        }
      }
      JOINT Dog_RightArmor001
      {
        OFFSET -2.6288 -3.4254 3.1460
        CHANNELS 6 Xposition Yposition Zposition Zrotation Xrotation Yrotation
        End Site
        {
          OFFSET 0 0 0
        }
      }
    }
  }
}
MOTION
Frames: 4
Frame Time: 0.00833333
-120.581 57.8064 -50.2936 21.0931 -87.2666 119.28 53.2821 -6.35e-05 8.19533 -90 -81.2558 -180 0 0 0 -89.9999 -4.1675e-14 -90 10.4409 -1.622 1.78e-05 4.26685 -2.27923 -9.46374 8.8514 -0.0089989 -1.42109e-14 -5.77104 0.455086 -3.89668 11.3035 -0.0087814 0 -5.41827 2.07817 -3.67713 11.0297 -0.0113029 1.42109e-14 -1.6567 2.37979 -5.34374 14.948 -3.19349 8.6e-06 -50.0175 5.31356 -6.63941 5.49578 -0.0042877 -1.42109e-14 11.8371 5.00165 -10.9769 5.52657 -0.0048637 -1.42109e-14 1.84181 1.7565 -1.20156 6.10934 -7.10543e-15 -2.84217e-14 39.7334 -4.10934 -5.15927 28.6688 0 0 -2.98177e-16 -9.93923e-17 -0 0.607494 2.35752 -7.6e-06 -156.427 -0.000147608 180 10.4683 2.1257 3.51896 -179.629 10.2484 -81.6805 7.34534 0 1.9e-06 -59.3116 -77.4102 32.3005 23.3863 -1.9e-06 1e-06 2.87934 -0.675813 -1.2093 21.504 0 0 -72.7095 -5.45598 2.27636 1.59262 6.21256 -0.0138378 2.79422 -0.946639 5.85556 23.3657 0 1e-06 -2.38542e-15 -3.18055e-15 -0 4.20345 4.44573 12.7354 172.377 0.21838 -87.1877 10.4683 2.12572 -3.51895 179.919 -5.59436 88.9947 7.34534 0 -1.9e-06 -30.4568 66.9178 -49.6849 23.3863 1.9e-06 0 -16.2008 0 -3.97569e-15 21.504 3.8e-06 1e-06 -93.2515 -14.467 10.1341 1.59262 6.21257 0.0138388 -11.0365 -6.72636 2.84784 23.3657 0 1e-06 180 -1.51076e-14 3.18055e-15 4.20337 4.4457 -12.7351 172.377 -0.218352 87.1876 -4.78895 3.85983 0.86083 166.679 2.78912 16.485 4.22117 3.815e-05 -5.7e-06 -4.17994 26.7539 -39.112 4.97505 3.8e-06 -6.7e-06 -2.37071 29.4859 1.30051 4.7171 -1.145e-05 2.86e-05 -1.59028e-15 0 -3.18055e-15 9.71734 -4.2e-05 -5.72e-05 -0 0 -0 8.26175 8.01e-05 5.7e-06 -1.59028e-15 -3.18055e-15 7.95139e-15 9.75986 -6.48e-05 2.86e-05 -3.18055e-15 3.18055e-15 -1.59028e-15 11.153 2.67e-05 -2.1e-05 4.77083e-15 0 -1.59028e-15 10.3039 1.14e-05 4.2e-05 -0 0 -1.59028e-15 -11.9878 -1.78568 10.19 170.606 3.62573 1.11034 8.44238 1.53e-05 4.2e-05 -1.49089e-16 0 -7.95139e-16 9.95005 7.6e-06 -2.86e-05 -1.2424e-16 0 -1.19271e-15 9.43418 1.42109e-14 -4.58e-05 9.31803e-17 -3.97569e-16 -7.95139e-16 9.71733 6.87e-05 0.0001106 1.05604e-16 -3.97569e-16 -7.95139e-16 8.26175 -2.29e-05 -4.77e-05 -7.45443e-17 0 -7.95139e-16 9.75994 2.86e-05 3.05e-05 1.2424e-16 0 -7.95139e-16 11.1529 -7.25e-05 -5.91e-05 1.42876e-16 -1.98785e-16 -3.97569e-16 10.3039 -7.6e-06 -7.10543e-15 1.49089e-16 0 -7.95139e-16 -1.14e-05 1.53e-05 9.94222 -101.103 24.9024 -177.925 25.9795 1e-06 1.42109e-14 -38.9578 -0.269547 -1.18034 21.2087 1.9e-06 -1e-06 59.7513 8.0193 -10.0254 10.4341 -1.9e-06 1e-06 -13.0494 -2.69745 4.43223 5.66763 6.59832 0 88.3967 3.85314 -1.04394 8.62785 0 0 -180 6.36111e-15 3.18055e-15 5.67414 -2.36194 -0.530567 -75.8081 4.38708 5.33411 -2.62874 -3.42539 -3.14618 29.7499 1.82752 90.2264 1.53e-05 -1.53e-05 -9.94222 -95.8264 -8.97824 171.319 25.9795 0 1e-06 -45.9989 -0.561702 2.53595 21.2087 1.42109e-14 1.9e-06 49.6943 -17.024 14.2524 10.4341 -1.9e-06 -1e-06 -11.2104 10.5382 -4.68144 5.66763 6.59831 7.10543e-15 91.2615 -5.77901 2.57595 8.62785 -3.55271e-15 0 -5.8393e-16 -7.95139e-16 3.97569e-16 5.67412 -2.36198 0.530355 -75.808 -4.38692 -5.33418 -2.62878 -3.42545 3.14601 29.7498 -1.82753 -90.2266
-120.581 57.8064 -50.2936 21.0931 -87.2666 119.28 53.2821 -6.35e-05 8.19533 -90 -81.2558 -180 0 0 0 -89.9999 -4.1675e-14 -90 10.4409 -1.622 1.78e-05 4.26685 -2.27923 -9.46374 8.8514 -0.0089989 -1.42109e-14 -5.77104 0.455086 -3.89668 11.3035 -0.0087814 0 -5.41827 2.07817 -3.67713 11.0297 -0.0113029 1.42109e-14 -1.6567 2.37979 -5.34374 14.948 -3.19349 8.6e-06 -50.0175 5.31356 -6.63941 5.49578 -0.0042877 -1.42109e-14 11.8371 5.00165 -10.9769 5.52657 -0.0048637 -1.42109e-14 1.84181 1.7565 -1.20156 6.10934 -7.10543e-15 -2.84217e-14 39.7334 -4.10934 -5.15927 28.6688 0 0 -2.98177e-16 -9.93923e-17 -0 0.607494 2.35752 -7.6e-06 -156.427 -0.000147608 180 10.4683 2.1257 3.51896 -179.629 10.2484 -81.6805 7.34534 0 1.9e-06 -59.3116 -77.4102 32.3005 23.3863 -1.9e-06 1e-06 2.87934 -0.675813 -1.2093 21.504 0 0 -72.7095 -5.45598 2.27636 1.59262 6.21256 -0.0138378 2.79422 -0.946639 5.85556 23.3657 0 1e-06 -2.38542e-15 -3.18055e-15 -0 4.20345 4.44573 12.7354 172.377 0.21838 -87.1877 10.4683 2.12572 -3.51895 179.919 -5.59436 88.9947 7.34534 0 -1.9e-06 -30.4568 66.9178 -49.6849 23.3863 1.9e-06 0 -16.2008 0 -3.97569e-15 21.504 3.8e-06 1e-06 -93.2515 -14.467 10.1341 1.59262 6.21257 0.0138388 -11.0365 -6.72636 2.84784 23.3657 0 1e-06 180 -1.51076e-14 3.18055e-15 4.20337 4.4457 -12.7351 172.377 -0.218352 87.1876 -4.78895 3.85983 0.86083 166.679 2.78912 16.485 4.22117 3.815e-05 -5.7e-06 -4.17994 26.7539 -39.112 4.97505 3.8e-06 -6.7e-06 -2.37071 29.4859 1.30051 4.7171 -1.145e-05 2.86e-05 -1.59028e-15 0 -3.18055e-15 9.71734 -4.2e-05 -5.72e-05 -0 0 -0 8.26175 8.01e-05 5.7e-06 -1.59028e-15 -3.18055e-15 7.95139e-15 9.75986 -6.48e-05 2.86e-05 -3.18055e-15 3.18055e-15 -1.59028e-15 11.153 2.67e-05 -2.1e-05 4.77083e-15 0 -1.59028e-15 10.3039 1.14e-05 4.2e-05 -0 0 -1.59028e-15 -11.9878 -1.78568 10.19 170.606 3.62573 1.11034 8.44238 1.53e-05 4.2e-05 -1.49089e-16 0 -7.95139e-16 9.95005 7.6e-06 -2.86e-05 -1.2424e-16 0 -1.19271e-15 9.43418 1.42109e-14 -4.58e-05 9.31803e-17 -3.97569e-16 -7.95139e-16 9.71733 6.87e-05 0.0001106 1.05604e-16 -3.97569e-16 -7.95139e-16 8.26175 -2.29e-05 -4.77e-05 -7.45443e-17 0 -7.95139e-16 9.75994 2.86e-05 3.05e-05 1.2424e-16 0 -7.95139e-16 11.1529 -7.25e-05 -5.91e-05 1.42876e-16 -1.98785e-16 -3.97569e-16 10.3039 -7.6e-06 -7.10543e-15 1.49089e-16 0 -7.95139e-16 -1.14e-05 1.53e-05 9.94222 -101.103 24.9024 -177.925 25.9795 1e-06 1.42109e-14 -38.9578 -0.269547 -1.18034 21.2087 1.9e-06 -1e-06 59.7513 8.0193 -10.0254 10.4341 -1.9e-06 1e-06 -13.0494 -2.69745 4.43223 5.66763 6.59832 0 88.3967 3.85314 -1.04394 8.62785 0 0 -180 6.36111e-15 3.18055e-15 5.67414 -2.36194 -0.530567 -75.8081 4.38708 5.33411 -2.62874 -3.42539 -3.14618 29.7499 1.82752 90.2264 1.53e-05 -1.53e-05 -9.94222 -95.8264 -8.97824 171.319 25.9795 0 1e-06 -45.9989 -0.561702 2.53595 21.2087 1.42109e-14 1.9e-06 49.6943 -17.024 14.2524 10.4341 -1.9e-06 -1e-06 -11.2104 10.5382 -4.68144 5.66763 6.59831 7.10543e-15 91.2615 -5.77901 2.57595 8.62785 -3.55271e-15 0 -5.8393e-16 -7.95139e-16 3.97569e-16 5.67412 -2.36198 0.530355 -75.808 -4.38692 -5.33418 -2.62878 -3.42545 3.14601 29.7498 -1.82753 -90.2266
-118.765 57.7842 -51.745 -69.7139 -82.9464 25.5675 53.2821 -6.35e-05 8.19533 -90 -81.2558 -180 0 0 0 -89.9999 -4.1675e-14 -90 10.4409 -1.622 1.78e-05 4.14573 -2.17549 -9.15207 8.8514 -0.0089989 0 -5.62209 0.461373 -3.84685 11.3035 -0.0087814 0 -5.31418 2.09533 -3.72667 11.0297 -0.0113029 0 -1.64792 2.4258 -5.45405 14.948 -3.19349 8.6e-06 -50.3066 5.04199 -6.76109 5.49578 -0.0042877 1.42109e-14 12.066 4.70773 -11.1424 5.52657 -0.0048637 0 1.9399 1.39471 -1.32554 6.10934 7.10543e-15 -1.42109e-14 39.8592 -4.34802 -5.5068 28.6688 0 0 -9.93923e-16 -7.95139e-16 3.18055e-15 0.607494 2.35752 -7.6e-06 -156.427 -0.000147608 180 10.4683 2.1257 3.51896 -179.729 10.1358 -81.7193 7.34534 -7.10543e-15 1.9e-06 -58.9376 -77.4937 32.6911 23.3863 -1.9e-06 1e-06 2.98185 -0.677976 -1.20809 21.504 1.42109e-14 0 -72.5819 -5.45091 2.28849 1.59262 6.21256 -0.0138378 3.01714 -0.829966 5.54396 23.3657 -3.55271e-15 1e-06 2.28602e-15 0 -0 4.20345 4.44573 12.7354 172.377 0.21838 -87.1877 10.4683 2.12572 -3.51895 179.856 -5.54878 89.1719 7.34534 0 -1.9e-06 -30.7919 66.8523 -49.5496 23.3863 1.9e-06 0 -16.1212 6.36111e-15 -7.95139e-16 21.504 3.8e-06 1e-06 -93.2679 -13.9778 9.95175 1.59262 6.21257 0.0138388 -12.9941 -7.89876 2.38237 23.3657 0 1e-06 180 -3.49861e-14 -0 4.20337 4.4457 -12.7351 172.377 -0.218352 87.1876 -4.78895 3.85983 0.86083 166.808 2.52516 17.3406 4.22117 3.815e-05 -5.7e-06 -5.60871 26.2616 -35.9353 4.97505 3.8e-06 -6.7e-06 -1.74689 29.054 0.712621 4.7171 -1.145e-05 2.86e-05 -3.18055e-15 9.54166e-15 -4.77083e-15 9.71734 -4.2e-05 -5.72e-05 -2.47179e-30 1.27222e-14 1.11319e-14 8.26175 8.01e-05 5.7e-06 8.82781e-31 6.36111e-15 -7.95139e-15 9.75986 -6.48e-05 2.86e-05 3.18055e-15 3.18055e-15 3.18055e-15 11.153 2.67e-05 -2.1e-05 -0 0 -7.95139e-15 10.3039 1.14e-05 4.2e-05 8.82781e-32 3.18055e-15 -1.59028e-15 -11.9878 -1.78568 10.19 170.606 3.62573 1.11034 8.44238 1.53e-05 4.2e-05 -1.06847e-15 -1.98785e-16 -7.95139e-16 9.95005 7.6e-06 -2.86e-05 -2.48481e-16 1.98785e-16 -1.59028e-15 9.43418 0 -4.58e-05 -2.73329e-16 1.98785e-16 -7.95139e-16 9.71733 6.87e-05 0.0001106 -2.73329e-16 0 -1.59028e-15 8.26175 -2.29e-05 -4.77e-05 -2.73329e-16 -1.98785e-16 -7.95139e-16 9.75994 2.86e-05 3.05e-05 -2.98177e-16 0 -7.95139e-16 11.1529 -7.25e-05 -5.91e-05 -3.23025e-16 0 -1.59028e-15 10.3039 -7.6e-06 0 -3.47873e-16 0 7.95139e-16 -1.14e-05 1.53e-05 9.94222 -101.414 24.6282 -177.711 25.9795 1e-06 0 -39.3211 -0.262057 -1.18203 21.2087 1.9e-06 -1e-06 59.5434 7.96529 -10.1664 10.4341 -1.9e-06 1e-06 -12.8697 -2.68353 4.44066 5.66763 6.59832 0 88.6401 4.02932 -1.14811 8.62785 3.55271e-15 0 -180 7.95139e-16 -0 5.67414 -2.36194 -0.530567 -75.8081 4.38708 5.33411 -2.62874 -3.42539 -3.14618 29.7499 1.82752 90.2264 1.53e-05 -1.53e-05 -9.94222 -95.6782 -8.91128 171.587 25.9795 0 1e-06 -45.9198 -0.5582 2.53672 21.2087 0 1.9e-06 49.5567 -16.9406 13.9895 10.4341 -1.9e-06 -1e-06 -11.2597 11.3743 -4.57664 5.66763 6.59831 0 91.3595 -5.89141 3.00024 8.62785 0 -3.55271e-15 3.10601e-15 3.97569e-16 -0 5.67412 -2.36198 0.530355 -75.808 -4.38692 -5.33418 -2.62878 -3.42545 3.14601 29.7498 -1.82753 -90.2266
-118.793 57.7899 -51.694 -68.7745 -83.2892 26.5729 53.2821 -6.35e-05 8.19533 -90 -81.2558 -180 0 0 0 -89.9999 -4.1675e-14 -90 10.4409 -1.622 1.78e-05 3.98751 -2.07379 -8.84641 8.8514 -0.0089989 0 -5.54597 0.453456 -3.74655 11.3035 -0.0087814 0 -5.25694 2.09324 -3.69553 11.0297 -0.0113029 -1.42109e-14 -1.60931 2.43699 -5.49957 14.948 -3.19349 8.6e-06 -50.14 4.9718 -6.74362 5.49578 -0.0042877 0 11.759 4.69602 -11.2966 5.52657 -0.0048637 -1.42109e-14 1.91623 1.47 -1.35395 6.10934 1.42109e-14 0 39.8507 -4.33816 -5.55619 28.6688 1.42109e-14 1.42109e-14 -1.98785e-16 -5.96354e-16 3.18055e-15 0.607494 2.35752 -7.6e-06 -156.427 -0.000147608 180 10.4683 2.1257 3.51896 -179.792 10.1214 -81.7598 7.34534 0 1.9e-06 -58.6716 -77.5919 32.9697 23.3863 -1.9e-06 1e-06 2.91244 -0.676512 -1.20891 21.504 -7.10543e-15 0 -72.298 -5.43955 2.31543 1.59262 6.21256 -0.0138378 3.15651 -0.658202 5.59912 23.3657 3.55271e-15 1e-06 -5.96354e-16 0 -1.19271e-15 4.20345 4.44573 12.7354 172.377 0.21838 -87.1877 10.4683 2.12572 -3.51895 179.837 -5.39943 89.3721 7.34534 0 -1.9e-06 -30.9223 67.0225 -49.5825 23.3863 1.9e-06 0 -15.9251 0 7.95139e-15 21.504 3.8e-06 1e-06 -93.2673 -13.8795 9.89422 1.59262 6.21257 0.0138388 -13.0289 -7.87942 2.37934 23.3657 0 1e-06 180 -2.06736e-14 3.18055e-15 4.20337 4.4457 -12.7351 172.377 -0.218352 87.1876 -4.78895 3.85983 0.86083 166.935 2.31722 18.1413 4.22117 3.815e-05 -5.7e-06 -7.35189 24.7533 -32.8805 4.97505 3.8e-06 -6.7e-06 -1.64748 29.0543 0.747418 4.7171 -1.145e-05 2.86e-05 -0 0 -0 9.71734 -4.2e-05 -5.72e-05 1.59028e-15 0 3.18055e-15 8.26175 8.01e-05 5.7e-06 1.76556e-31 -3.18055e-15 3.18055e-15 9.75986 -6.48e-05 2.86e-05 -1.59028e-15 0 3.18055e-15 11.153 2.67e-05 -2.1e-05 -1.59028e-15 3.18055e-15 3.18055e-15 10.3039 1.14e-05 4.2e-05 -1.59028e-15 0 3.18055e-15 -11.9878 -1.78568 10.19 170.606 3.62573 1.11034 8.44238 1.53e-05 4.2e-05 -3.47873e-16 3.97569e-16 -7.95139e-16 9.95005 7.6e-06 -2.86e-05 4.96962e-16 0 -0 9.43418 0 -4.58e-05 4.47266e-16 0 -0 9.71733 6.87e-05 0.0001106 4.22417e-16 0 -0 8.26175 -2.29e-05 -4.77e-05 3.97569e-16 0 -0 9.75994 2.86e-05 3.05e-05 3.72721e-16 0 -0 11.1529 -7.25e-05 -5.91e-05 3.47873e-16 0 -0 10.3039 -7.6e-06 7.10543e-15 3.23025e-16 0 -0 -1.14e-05 1.53e-05 9.94222 -101.756 24.3845 -177.521 25.9795 1e-06 1.42109e-14 -39.5778 -0.256757 -1.18319 21.2087 1.9e-06 -1e-06 59.5749 8.37185 -10.4252 10.4341 -1.9e-06 1e-06 -12.8315 -2.68056 4.44245 5.66763 6.59832 1.42109e-14 88.6258 4.07528 -1.20736 8.62785 0 1.42109e-14 -180 -5.56597e-15 1.59028e-15 5.67414 -2.36194 -0.530567 -75.8081 4.38708 5.33411 -2.62874 -3.42539 -3.14618 29.7499 1.82752 90.2264 1.53e-05 -1.53e-05 -9.94222 -95.6659 -8.92328 171.828 25.9795 1.42109e-14 1e-06 -45.8907 -0.556911 2.537 21.2087 0 1.9e-06 49.3776 -16.5596 13.6833 10.4341 -1.9e-06 -1e-06 -11.1726 11.1695 -4.57245 5.66763 6.59831 0 91.4064 -5.93548 3.03687 8.62785 0 7.10543e-15 1.88845e-15 5.96354e-16 -7.95139e-16 5.67412 -2.36198 0.530355 -75.808 -4.38692 -5.33418 -2.62878 -3.42545 3.14601 29.7498 -1.82753 -90.2266
